<!DOCTYPE svg PUBLIC "-//W3C//DTD SVG 20010904//EN" "http://www.w3.org/TR/2001/REC-SVG-20010904/DTD/svg10.dtd">
<svg version="1.0" xmlns="http://www.w3.org/2000/svg" width="500px" height="500px" viewBox="0 0 5000 5000" preserveAspectRatio="xMidYMid meet">
<g id="layer101" fill="#ffffff" stroke="none">
 <path d="M1632 4499 c-69 -45 -94 -154 -49 -219 15 -23 524 -384 1557 -1107 844 -590 1562 -1091 1594 -1113 48 -33 68 -40 106 -40 84 0 160 74 160 154 0 24 -133 507 -317 1151 l-317 1110 -41 43 -42 42 -1309 0 -1309 0 -33 -21z"/>
 <path d="M673 4476 c-17 -14 -35 -38 -41 -53 -6 -16 -151 -518 -323 -1118 -337 -1181 -331 -1157 -282 -1223 38 -52 124 -76 187 -52 23 8 1972 1366 2004 1395 11 10 -128 112 -738 539 -413 290 -757 529 -764 532 -7 3 -27 -6 -43 -20z"/>
 <path d="M1998 2902 c-274 -191 -498 -352 -498 -358 0 -18 848 -1987 868 -2014 61 -83 211 -79 267 9 23 37 865 1992 865 2007 -1 8 -979 695 -998 701 -4 2 -231 -154 -504 -345z"/>
 </g>

</svg>